<!DOCTYPE svg PUBLIC "-//W3C//DTD SVG 20010904//EN" "http://www.w3.org/TR/2001/REC-SVG-20010904/DTD/svg10.dtd">
<svg version="1.0" xmlns="http://www.w3.org/2000/svg" width="221px" height="239px" viewBox="0 0 2210 2390" preserveAspectRatio="xMidYMid meet">
<g id="layer101" fill="#488eff" stroke="none">
 <path d="M1077 2240 c-21 -12 -54 -43 -73 -70 l-36 -50 -284 0 -284 0 0 -70 0 -70 290 0 289 0 12 -22 c17 -34 60 -78 92 -94 l28 -15 -3 -107 -3 -107 -307 -5 c-288 -5 -308 -6 -334 -25 -56 -42 -64 -74 -64 -253 0 -186 8 -216 69 -258 l36 -24 655 0 655 0 36 24 c63 43 71 73 67 266 -3 187 -7 199 -78 248 -32 21 -39 22 -306 22 l-274 0 0 113 0 112 35 20 c20 10 48 38 63 61 l27 43 268 1 267 0 0 70 0 70 -269 0 -270 0 -22 40 c-37 65 -89 94 -173 97 -56 3 -79 -1 -109 -17z m-269 -769 c97 -50 97 -198 -1 -244 -46 -22 -95 -21 -134 3 -91 55 -81 193 17 242 45 23 72 23 118 -1z"/>
 <path d="M469 896 c-61 -42 -69 -72 -69 -258 0 -183 8 -213 70 -256 l33 -22 657 0 657 0 33 22 c64 44 71 72 68 265 -3 190 -7 202 -78 251 l-33 22 -651 0 -651 0 -36 -24z m324 -130 c18 -7 43 -26 57 -41 21 -22 25 -37 25 -87 0 -56 -2 -62 -37 -93 -95 -87 -228 -31 -228 96 0 54 32 102 85 125 39 17 58 17 98 0z"/>
 </g>

</svg>